<svg fill="none" height="48" viewBox="0 0 48 48" width="48" xmlns="http://www.w3.org/2000/svg"><path clip-rule="evenodd" d="m0 6c0-3.31371 2.68628-6 6-6h36c3.3137 0 6 2.68629 6 6v36c0 3.3137-2.6863 6-6 6h-36c-3.31372 0-6-2.6863-6-6zm6-4h13.8917c1.7167 0 3.1083 1.39162 3.1083 3.10825 0 1.64236-1.2916 2.96923-2.8851 3.36673-6.9591 1.73592-12.1149 8.02832-12.1149 15.52502s5.1558 13.7891 12.1149 15.525c1.5935.3975 2.8851 1.7244 2.8851 3.3667 0 1.7167-1.3916 3.1083-3.1083 3.1083h-13.8917c-2.20923 0-4-1.7909-4-4v-36c0-2.20914 1.79077-4 4-4zm19 40.8917c0 1.7167 1.3916 3.1083 3.1083 3.1083h13.8917c2.2092 0 4-1.7909 4-4v-36c0-2.20914-1.7908-4-4-4h-13.8917c-1.7167 0-3.1083 1.39162-3.1083 3.10825 0 1.64236 1.2916 2.96923 2.8851 3.36673 3.7098.92537 6.9071 3.14562 9.084 6.15282.329.4545.1756 1.0853-.3055 1.374-.465.279-1.0663.1348-1.3882-.3018-2.5492-3.4573-6.6503-5.7-11.2754-5.7-7.7319 0-14 6.268-14 14s6.2681 14 14 14c6.6591 0 12.2322-4.6491 13.6508-10.8786l.0018-.0078c.2671-1.1767-.6233-2.1136-1.8299-2.1136h-7.5791c-.8476 0-1.5631.5914-2.1776 1.1753-.538.5111-1.2654.8247-2.066.8247-1.6569 0-3-1.3431-3-3s1.3431-3 3-3c.8814 0 1.6741.3801 2.2229.9854.479.5282 1.0831 1.0146 1.7961 1.0146 1.5358 0 2.732-1.4117 1.9162-2.7129-1.2376-1.9744-3.4331-3.2871-5.9352-3.2871-3.866 0-7 3.134-7 7s3.134 7 7 7c1.5108 0 2.9098-.4786 4.0537-1.2925.4517-.3214 1.0842-.3109 1.4642.0927.3769.4005.3624 1.0355-.0754 1.3684-1.5114 1.1492-3.3973 1.8314-5.4425 1.8314-4.9706 0-9-4.0294-9-9s4.0294-9 9-9c3.6956 0 6.871 2.2274 8.2568 5.413.6101 1.4024 1.8456 2.587 3.3749 2.587h.5765c2.1136 0 4.2044 1.5787 3.6773 3.6255-.1047.4066-.2319.8626-.3855 1.3745-1.5 5-4.6558 9.7891-11.6149 11.525-1.5935.3975-2.8851 1.7244-2.8851 3.3667z" fill="#000" fill-rule="evenodd"/></svg>