<svg fill="none" height="48" viewBox="0 0 48 48" width="48" xmlns="http://www.w3.org/2000/svg"><path clip-rule="evenodd" d="m0 6c0-3.31371 2.68628-6 6-6h36c3.3137 0 6 2.68629 6 6v36c0 3.3137-2.6863 6-6 6h-36c-3.31372 0-6-2.6863-6-6zm6-4h36c2.2092 0 4 1.79086 4 4v14c0 1.6569-1.3431 3-3 3h-.2101c-1.5851 0-2.8668-1.246-3.2406-2.7864-1.7008-7.009-8.0173-12.2136-15.5493-12.2136s-13.8485 5.2046-15.54931 12.2136c-.3738 1.5404-1.65548 2.7864-3.24063 2.7864h-.21006c-1.65685 0-3-1.3431-3-3v-14c0-2.20914 1.79083-4 4-4zm33.5494 25.7862c.3737-1.5404 1.6554-2.7862 3.2405-2.7862h.2101c1.6569 0 3 1.3431 3 3v14c0 2.2091-1.7908 4-4 4h-14c-1.6569 0-3-1.3431-3-3v-.21c0-1.5852 1.2458-2.8668 2.7862-3.2406 5.7953-1.4062 10.357-5.9679 11.7632-11.7632zm-14.5494 8.0325c0 1.16.99 2.0897 2.121 1.8321 2.697-.614 5.0978-2.0068 6.9534-3.9293.4687-.4856.5379-1.2194.2257-1.8177-.2898-.5555-.8644-.9038-1.4909-.9038h-5.8092c-1.1046 0-2 .8954-2 2zm-4-4.8187c1.1046 0 2 .8954 2 2v2.8187c0 1.16-.99 2.0896-2.121 1.8321-2.697-.614-5.0979-2.0069-6.9535-3.9294-.4687-.4856-.5379-1.2193-.2257-1.8176.2898-.5555.8644-.9038 1.4909-.9038zm-.7862 8.5494c1.5404.3738 2.7862 1.6554 2.7862 3.2406v.21c0 1.6569-1.3431 3-3 3h-14c-2.20917 0-4-1.7909-4-4v-14c0-1.6569 1.34315-3 3-3h.21006c1.58515 0 2.8668 1.2458 3.24058 2.7862 1.40618 5.7953 5.96786 10.357 11.76316 11.7632zm-.05-16.5494c-1.1177 0-2.1427.6214-2.6597 1.6123l-1.5262 2.9251c-.3473.6658.1357 1.4626.8866 1.4626h14.2709c.751 0 1.234-.7968.8866-1.4626l-1.5261-2.9251c-.5171-.9909-1.5421-1.6123-2.6598-1.6123zm3.8361-2c2.0991 0 3.4492-2.2273 2.4783-4.0882-1.0451-2.003-3.9114-2.003-4.9565 0-.9709 1.8609.3792 4.0882 2.4782 4.0882zm-13.9999 3c0 1.921.3869 3.7517 1.087 5.4182.3049.7257 1.2825.7117 1.6466.0139l9.2759-17.779c.3641-.6978-.1842-1.5077-.9539-1.343-6.3182 1.3524-11.0556 6.9679-11.0556 13.6899zm26.913 5.4183c-.3049.7257-1.2825.7116-1.6466.0138l-9.276-17.779c-.3641-.6978.1843-1.5077.9539-1.343 6.3183 1.3524 11.0557 6.9679 11.0557 13.6899 0 1.921-.3869 3.7517-1.087 5.4183z" fill="#000" fill-rule="evenodd"/></svg>