<svg fill="none" height="48" viewBox="0 0 48 48" width="48" xmlns="http://www.w3.org/2000/svg"><path clip-rule="evenodd" d="m6 0c-3.31371 0-6 2.68629-6 6v36c0 3.3137 2.68629 6 6 6h36c3.3137 0 6-2.6863 6-6v-36c0-3.31371-2.6863-6-6-6zm0 2h22.7693c.9221 0 1.1777 1.50096.3302 1.86438-4.4319 1.90038-8.52 4.44879-12.1452 7.52602-1.2446 1.0566-3.1044 1.0452-4.2588-.1092l-7.22034-7.22033c-.76347-.76347-.55488-2.06087.52484-2.06087zm-1.93899 3.47515c-.76352-.76353-2.06101-.55493-2.06101.52485v22.7693c0 .9221 1.50096 1.1777 1.86438.3302 1.9004-4.432 4.44883-8.5201 7.52612-12.1452 1.0565-1.2447 1.0452-3.1044-.1092-4.2589zm1.93899 40.52485c-1.09189 0-2.08159-.4375-2.80339-1.1468-.84702-.8323-.91359-2.1218-.74872-3.2978 2.83873-20.2481 18.85931-36.26878 39.10751-39.10751 1.176-.16488 2.4655-.0983 3.2978.74872.7093.72179 1.1468 1.7115 1.1468 2.80339v7.2269c0 1.5851-1.2375 2.8954-2.805 3.1315-13.0211 1.9607-23.4719 11.7675-26.3841 24.4517-.1412.6152.3351 1.1899.9663 1.1899.4788 0 .8897-.3383.9979-.8047 2.6995-11.6401 12.1738-20.6831 24.0438-22.7496 1.7086-.2974 3.1811 1.1163 3.1811 2.8506 0 .0347-.0006.0693-.0018.1037h.0018v7.9722.0278.0746c0 1.5134-1.1399 2.76-2.5898 3.1935-4.17 1.2465-7.6257 4.1478-9.605 7.9418-.3387.6492.1573 1.3901.8895 1.3901.3986 0 .7586-.2311.9463-.5827 1.5252-2.8577 4.0126-5.1243 7.0296-6.3672 1.6882-.6955 3.3294.7255 3.3294 2.5513v4.3986c0 2.2091-1.7909 4-4 4h-4.3986c-.0339 0-.0677-.0006-.1014-.0017v.0017h-8c-.0084.0001-.0169 0-.0254 0h-.1024c-1.7632 0-3.1635-1.5232-2.7453-3.2361 1.816-7.438 7.4135-13.3938 14.6399-15.7144.4313-.1385.7332-.5342.7332-.9872 0-.6617-.6251-1.1458-1.2558-.946-8.2411 2.6106-14.5565 9.5498-16.2771 18.1483-.3064 1.5309-1.6095 2.7354-3.1708 2.7354-.0154 0-.0309-.0001-.0463-.0004l-8 .0004h-.0231c-1.7179 0-3.1118-1.4444-2.8813-3.1467 2.207-16.2999 14.7491-29.3178 30.8114-32.2388.4838-.088.843-.5091.843-1.00096 0-.61153-.5456-1.08536-1.1474-.97681-17.3834 3.13567-30.86209 17.50387-32.65071 35.31937-.11465 1.1419-1.05424 2.0439-2.20189 2.0439z" fill="#000" fill-rule="evenodd"/></svg>