<svg fill="none" height="56" viewBox="0 0 84 56" width="84" xmlns="http://www.w3.org/2000/svg"><g fill="#000"><path d="m48.137 0 7.058 6.99999-28 28.00001.805.805 35.8049-35.80499346h-1.61l-6.2329 6.23291346-6.2282-6.23292z"/><path d="m6.19499.00000654h1.61l-7.80499 7.80500346v-1.61z"/><path d="m55.195 35 .805.805 27.9999-27.99999v-1.61z"/><path d="m56 48.1775-7-6.9825-.805.805 7.805 7.805 27.9999-28v-1.61z"/><path d="m34.195 42 .805.805 42.8049-42.80499346h-1.61z"/><path d="m35.8225 56-14.8225-14.805-14.82251 14.805h1.6275l6.21271-6.195 6.1949 6.195h1.6275l-7.0167-7 6.1766-6.195 13.195 13.195z"/><path d="m42 48.195 7.805 7.805h-1.61l-7-7z"/><path d="m28.805 21-.805-.805-28 27.9825v1.6275z"/><path d="m83.9999 35.805-20.195 20.195h-1.61l21.805-21.805z"/><path d="m83.9999 48.195-7.805 7.805h1.61l6.195-6.195z"/><path d="m0 20.1775 14-13.98249.805.805-14.805 14.80499z"/><path d="m35 14.805.805-.805-14-13.99999346h-1.61z"/><path d="m42 7.80501.805-.805-7-7.00000346h-1.61z"/><path d="m0 34.1775 21-20.9825.805.805-21.805 21.805z"/></g></svg>