<svg fill="none" height="50" viewBox="0 0 74 50" width="74" xmlns="http://www.w3.org/2000/svg"><path clip-rule="evenodd" d="m0 10v-8c0-1.104568.895386-2 2-2h8 18.9091c2.8116 0 5.0909 2.27928 5.0909 5.09091 0 1.60665 1.3025 2.90909 2.9091 2.90909h.1818c1.6066 0 2.9091-1.30244 2.9091-2.90909 0-2.81163 2.2793-5.09091 5.0909-5.09091h18.9091c5.5228 0 10 4.47716 10 10v15.1111c0 4.9092-3.9797 8.8889-8.8889 8.8889h-4.1111c-1.6569 0-3 1.3431-3 3s1.3431 3 3 3h8c2.7615 0 5 2.2386 5 5s-2.2385 5-5 5h-7.9091c-2.8116 0-5.0909-2.2793-5.0909-5.0909 0-1.6067-1.3025-2.9091-2.9091-2.9091h-.1818c-1.6066 0-2.9091 1.3024-2.9091 2.9091 0 2.8116-2.2793 5.0909-5.0909 5.0909h-7.8182c-2.8116 0-5.0909-2.2793-5.0909-5.0909 0-1.6067-1.3025-2.9091-2.9091-2.9091h-.1818c-1.6066 0-2.9091 1.3024-2.9091 2.9091v.0909c0 2.7614-2.2385 5-5 5s-5-2.2386-5-5v-.0909c0-1.6067-1.3025-2.9091-2.9091-2.9091h-.1818c-1.6066 0-2.9091 1.3024-2.9091 2.9091v.0909c0 2.7614-2.23853 5-5 5s-5-2.2386-5-5 2.23853-5 5-5h.09094c1.60657 0 2.90906-1.3024 2.90906-2.9091v-.0909c0-1.6569-1.34314-3-3-3h-.19995c-2.651 0-4.80005-2.149-4.80005-4.8zm10 27c0-1.6569 1.3431-3 3-3h.2c2.651 0 4.8-2.149 4.8-4.8v-.2c0-1.6569 1.3431-3 3-3s3 1.3431 3 3v.2c0 2.651 2.149 4.8 4.8 4.8h.2c1.6569 0 3 1.3431 3 3s-1.3431 3-3 3h-.2c-2.651 0-4.8 2.149-4.8 4.8v.2c0 1.6569-1.3431 3-3 3s-3-1.3431-3-3v-.2c0-2.651-2.149-4.8-4.8-4.8h-.2c-1.6569 0-3-1.3431-3-3zm3-13c1.6569 0 3-1.3431 3-3s-1.3431-3-3-3h-.2c-2.651 0-4.8-2.149-4.8-4.8v-.2c0-2.7614 2.2385-5 5-5h8.0769c2.719 0 4.9231 2.2041 4.9231 4.9231 0 1.6993 1.3776 3.0769 3.0769 3.0769 2.719 0 4.9231 2.2041 4.9231 4.9231v4.0769c0 3.866 3.134 7 7 7h4c1.6569 0 3-1.3431 3-3s-1.3431-3-3-3h-.2c-2.651 0-4.8-2.149-4.8-4.8v-8c0-1.7673-1.4327-3.2-3.2-3.2-2.651 0-4.8-2.14903-4.8-4.8 0-1.76731-1.4327-3.2-3.2-3.2h-18.8c-4.41833 0-8 3.58173-8 8v19c0 1.6569 1.34314 3 3 3s3-1.3431 3-3v-.2c0-2.651 2.149-4.8 4.8-4.8zm8.2 0c-1.7673 0-3.2-1.4327-3.2-3.2v-.8c0-2.2091-1.7909-4-4-4h-1c-1.6569 0-3-1.3431-3-3s1.3431-3 3-3h8.3334c1.4728 0 2.6666 1.1939 2.6666 2.6667v.4102c0 2.719 2.2041 4.9231 4.9231 4.9231 1.6993 0 3.0769 1.3776 3.0769 3.0769v7.9231c0 1.6569-1.3431 3-3 3s-3-1.3431-3-3v-.2c0-2.651-2.149-4.8-4.8-4.8zm12.8 13c0-1.6569 1.3431-3 3-3h8c1.6569 0 3 1.3431 3 3s-1.3431 3-3 3h-8c-1.6569 0-3-1.3431-3-3zm27-5c-1.6569 0-3-1.3431-3-3s1.3431-3 3-3h.2c2.651 0 4.8-2.149 4.8-4.8v-7.2c0-3.3137-2.6863-6-6-6h-15c-1.6569 0-3-1.34314-3-3s1.3431-3 3-3h19c4.4183 0 8 3.58173 8 8v15c0 3.866-3.134 7-7 7zm-5-3c0-1.6569-1.3431-3-3-3s-3 1.3431-3 3v8c0 1.6569 1.3431 3 3 3s3-1.3431 3-3zm4.9091-5c-1.6066 0-2.9091-1.3024-2.9091-2.9091v-.0909c0-2.7614-2.2385-5-5-5s-5 2.2386-5 5v.0909c0 1.6067-1.3025 2.9091-2.9091 2.9091h-.0909c-1.6569 0-3-1.3431-3-3v-7c0-2.2091 1.7909-4 4-4h14c2.2091 0 4 1.7909 4 4v7c0 1.6569-1.3431 3-3 3zm-7.9091 0c-1.6569 0-3-1.3431-3-3s1.3431-3 3-3 3 1.3431 3 3-1.3431 3-3 3zm-8 18c1.6569 0 3 1.3431 3 3s-1.3431 3-3 3h-8c-1.6569 0-3-1.3431-3-3s1.3431-3 3-3zm-29-13c0-1.6569-1.3431-3-3-3s-3 1.3431-3 3 1.3431 3 3 3 3-1.3431 3-3zm-11 13c1.65686 0 3 1.3431 3 3s-1.34314 3-3 3-3-1.3431-3-3 1.34314-3 3-3zm53 3c0-1.6569 1.3431-3 3-3h8c1.6569 0 3 1.3431 3 3s-1.3431 3-3 3h-8c-1.6569 0-3-1.3431-3-3z" fill="#000" fill-rule="evenodd"/></svg>