<svg fill="none" height="194" viewBox="0 0 290 194" width="290" xmlns="http://www.w3.org/2000/svg"><path clip-rule="evenodd" d="m177 194c9.389 0 17-7.611 17-17 0-8.284 6.716-15 15-15s15 6.716 15 15c0 9.389 7.611 17 17 17h32c9.389 0 17-7.611 17-17s-7.611-17-17-17h-32c-8.284 0-15-6.716-15-15s6.716-15 15-15h16c18.225 0 33-14.775 33-33v-64c0-18.2254-14.775-33-33-33-26.667 0-53.334 0-80 0-9.274 0-17 7.60894-17 17 0 8.2843-6.716 15-15 15s-15-6.7157-15-15c0-9.38884-7.611-17-17-17-34.1662 0-68.3331 0-102.5 0-5.79899 0-10.5 4.70101-10.5 10.5v102.5c0 9.389 7.61106 17 17 17 8.2844 0 15 6.716 15 15s-6.7156 15-15 15c-9.38894 0-17 7.611-17 17s7.61106 17 17 17c9.3889 0 17-7.611 17-17 0-8.284 6.7156-15 15-15s15 6.716 15 15c0 9.389 7.6111 17 17 17s17-7.611 17-17c0-8.284 6.716-15 15-15s15 6.716 15 15c0 9.389 7.611 17 17 17zm-79-81c0-9.385-7.6048-16.9938-16.9885-17-2.5216 0-6.2926-1.0268-9.4246-3.4281-3.1128-2.3864-5.5869-6.1215-5.5869-11.5719 0-9.3888-7.6111-17-17-17-8.2844 0-15-6.7157-15-15s6.7156-15 15-15h32c8.2844 0 15 6.7157 15 15 0 9.3888 7.611 17 17 17 8.284 0 14.999 6.7145 15 14.9977-.101 10.6672 0 21.3353 0 32.0023 0 8.284-6.716 15-15 15s-15-6.716-15-15zm-96-80c0-17.1208 13.8792-31 31-31h80c8.284 0 15 6.71572 15 15 0 9.3888 7.611 17 17 17 8.284 0 15 6.7157 15 15v32c0 9.3888 7.611 17 17 17 8.284 0 15 6.716 15 15s-6.716 15-15 15h-27.5c-10.77 0-19.5-8.73-19.5-19.5v-27.5c0-9.3888-7.611-17-17-17-8.284 0-15-6.7157-15-15 0-9.3888-7.6111-17-17-17h-32c-9.3889 0-17 7.6112-17 17s7.6111 17 17 17c8.2844 0 15 6.7157 15 15s-6.7156 15-15 15c-9.3889 0-17 7.611-17 17 0 8.284-6.7156 15-15 15s-15-6.716-15-15zm160 48v-27.5c0-10.7696 8.73-19.5 19.5-19.5h55c10.77 0 19.5 8.7304 19.5 19.5v27.5c0 8.2843-6.716 15-15 15s-15-6.7157-15-15c0-9.3889-7.611-17-17-17s-17 7.6111-17 17c0 8.2843-6.716 15-15 15s-15-6.7157-15-15zm15-49c-8.284 0-15-6.7157-15-15 0-8.28428 6.716-15 15-15h80c17.121 0 31 13.8792 31 31v64c0 17.121-13.879 31-31 31h-16c-8.284 0-15-6.716-15-15s6.716-15 15-15c9.389 0 17-7.6112 17-17v-27.5c0-11.8741-9.626-21.5-21.5-21.5zm17 113v-32c0-8.284 6.716-15 15-15s15 6.716 15 15v32c0 8.284-6.716 15-15 15s-15-6.716-15-15zm47 47c-8.284 0-15-6.716-15-15s6.716-15 15-15h32c8.284 0 15 6.716 15 15s-6.716 15-15 15zm-64-30c8.284 0 15 6.716 15 15s-6.716 15-15 15h-32c-8.284 0-15-6.716-15-15s6.716-15 15-15zm-49-17c0 8.284-6.716 15-15 15-9.389 0-17 7.611-17 17 0 8.284-6.7156 15-15 15s-15-6.716-15-15c0-9.389-7.6111-17-17-17-8.2844 0-15-6.716-15-15s6.7156-15 15-15c9.3889 0 17-7.611 17-17 0-8.284 6.7156-15 15-15s15 6.716 15 15c0 9.389 7.611 17 17 17 8.284 0 15 6.716 15 15zm-64-32c0 8.284-6.7156 15-15 15s-15-6.716-15-15 6.7156-15 15-15 15 6.716 15 15zm-62 64c0-8.284 6.7156-15 15-15s15 6.716 15 15-6.7156 15-15 15-15-6.716-15-15zm128-32c0-8.284 6.716-15 15-15h32c8.284 0 15 6.716 15 15s-6.716 15-15 15h-32c-8.284 0-15-6.716-15-15zm79-49c-8.284 0-15-6.7157-15-15s6.716-15 15-15 15 6.7157 15 15-6.716 15-15 15z" fill="#000" fill-rule="evenodd"/></svg>