<svg fill="none" height="98" viewBox="0 0 146 98" width="146" xmlns="http://www.w3.org/2000/svg"><path clip-rule="evenodd" d="m89 98c4.9706 0 9-4.0294 9-9 0-3.866 3.134-7 7-7s7 3.134 7 7c0 4.9706 4.029 9 9 9h16c4.971 0 9-4.0294 9-9s-4.029-9-9-9h-16c-3.866 0-7-3.134-7-7s3.134-7 7-7h8c9.389 0 17-7.6112 17-17v-32c0-9.38884-7.611-17-17-17h-40c-4.9109 0-9 4.02609-9 9 0 3.866-3.1339 7-7 7s-7-3.134-7-7c0-4.97056-4.0294-9-9-9h-51.25c-3.17564 0-5.75 2.57436-5.75 5.75v51.25c0 4.9706 4.02939 9 9 9 3.8661 0 7 3.134 7 7s-3.1339 7-7 7c-4.97061 0-9 4.0294-9 9s4.02939 9 9 9c4.9706 0 9-4.0294 9-9 0-3.866 3.1339-7 7-7s7 3.134 7 7c0 4.9706 4.0294 9 9 9s9-4.0294 9-9c0-3.866 3.1339-7 7-7s7 3.134 7 7c0 4.9706 4.0294 9 9 9zm-39-41c0-4.9685-4.0261-8.9967-8.9939-9-1.1518 0-2.9305-.4778-4.4085-1.6108-1.4489-1.1108-2.5976-2.8386-2.5976-5.3892 0-4.9706-4.0294-9-9-9-3.8661 0-7-3.134-7-7s3.1339-7 7-7h16c3.8661 0 7 3.134 7 7 0 4.9706 4.0294 9 9 9 3.8649 0 6.9981 3.1321 7 6.9966-.0507 5.3356 0 10.6772 0 16.0034 0 3.866-3.1339 7-7 7s-7-3.134-7-7zm-48-40c0-8.28427 6.71573-15 15-15h40c3.8661 0 7 3.134 7 7 0 4.9706 4.0294 9 9 9 3.8661 0 7 3.134 7 7v16c0 4.9706 4.0294 9 9 9 3.8661 0 7 3.134 7 7s-3.1339 7-7 7h-13.75c-5.1087 0-9.25-4.1414-9.25-9.25v-13.75c0-4.9706-4.0294-9-9-9-3.8661 0-7-3.134-7-7 0-4.9706-4.0294-9-9-9h-16c-4.9706 0-9 4.0294-9 9s4.0294 9 9 9c3.8661 0 7 3.134 7 7s-3.1339 7-7 7c-4.9706 0-9 4.0294-9 9 0 3.866-3.1339 7-7 7-3.86606 0-7-3.134-7-7zm80 24v-13.75c0-5.1086 4.1413-9.25 9.25-9.25h27.5c5.109 0 9.25 4.1414 9.25 9.25v13.75c0 3.866-3.134 7-7 7s-7-3.134-7-7c0-4.9706-4.029-9-9-9s-9 4.0294-9 9c0 3.866-3.1339 7-7 7s-7-3.134-7-7zm7-25c-3.8661 0-7-3.134-7-7s3.1339-7 7-7h40c8.284 0 15 6.71573 15 15v32c0 8.2843-6.716 15-15 15h-8c-3.866 0-7-3.134-7-7s3.134-7 7-7c4.971 0 9-4.0294 9-9v-13.75c0-6.2132-5.037-11.25-11.25-11.25zm9 57v-16c0-3.866 3.134-7 7-7s7 3.134 7 7v16c0 3.866-3.134 7-7 7s-7-3.134-7-7zm23 23c-3.866 0-7-3.134-7-7s3.134-7 7-7h16c3.866 0 7 3.134 7 7s-3.134 7-7 7zm-32-14c3.8661 0 7 3.134 7 7s-3.1339 7-7 7h-16c-3.8661 0-7-3.134-7-7s3.1339-7 7-7zm-25-9c0 3.866-3.1339 7-7 7-4.9706 0-9 4.0294-9 9 0 3.866-3.1339 7-7 7s-7-3.134-7-7c0-4.9706-4.0294-9-9-9-3.8661 0-7-3.134-7-7s3.1339-7 7-7c4.9706 0 9-4.0294 9-9 0-3.866 3.1339-7 7-7s7 3.134 7 7c0 4.9706 4.0294 9 9 9 3.8661 0 7 3.134 7 7zm-32-16c0 3.866-3.1339 7-7 7s-7-3.134-7-7 3.1339-7 7-7 7 3.134 7 7zm-30 32c0-3.866 3.13394-7 7-7 3.8661 0 7 3.134 7 7s-3.1339 7-7 7c-3.86606 0-7-3.134-7-7zm64-16c0-3.866 3.1339-7 7-7h16c3.8661 0 7 3.134 7 7s-3.1339 7-7 7h-16c-3.8661 0-7-3.134-7-7zm39-25c-3.866 0-7-3.134-7-7s3.134-7 7-7 7 3.134 7 7-3.134 7-7 7z" fill="#000" fill-rule="evenodd"/></svg>