<svg fill="none" height="386" viewBox="0 0 578 386" width="578" xmlns="http://www.w3.org/2000/svg"><path clip-rule="evenodd" d="m513 0c35.898 0 65 29.1015 65 65v128c0 35.898-29.102 65-65 65h-32c-17.121 0-31 13.879-31 31s13.879 31 31 31h64c18.226 0 33 14.775 33 33s-14.774 33-33 33h-64c-18.226 0-33-14.775-33-33 0-17.121-13.879-31-31-31s-31 13.879-31 31c0 18.225-14.774 33-33 33l-64-.008v.008c-18.226 0-33-14.775-33-33 0-17.121-13.879-31-31-31s-31 13.879-31 31c0 18.225-14.774 33-33 33s-33-14.775-33-33c0-17.121-13.879-31-31-31-17.1211 0-31 13.879-31 31 0 18.225-14.7744 33-33 33s-33-14.775-33-33 14.7744-33 33-33c17.1211 0 31-13.879 31-31s-13.8789-31-31-31c-18.2256 0-33-14.775-33-33v-205c0-11.04569 8.95431-20 20-20 34.161 0 68.4313.00192658 102.666.00385117 34.195.00192232 68.354.00384266 102.334.00383926 0 0-18.226-.00769043 0-.00769043s33 14.7746 33 33c0 17.1208 13.879 31 31 31s31-13.8792 31-31c0-18.2254 15-33 33-33s0 .00769043 0 .00769043 106.707-.00769043 160-.00769043zm-448 2c-34.7939 0-63 28.2061-63 63v160c0 17.121 13.8789 31 31 31s31-13.879 31-31c0-18.225 14.7744-33 33-33 17.121 0 31-13.879 31-31s-13.879-31-31-31c-18.2256 0-33-14.775-33-33 0-18.2254 14.7744-33 33-33h64c18.226 0 33 14.7746 33 33 0 17.121 13.879 31 31 31 18.226 0 33 14.775 33 33v55c0 22.091 17.908 40 40 40h55c17.121 0 31-13.879 31-31s-13.879-31-31-31c-18.226 0-33-14.775-33-33v-64c0-17.1208-13.879-31-31-31-18.226 0-33-14.7746-33-33 0-17.1208-13.879-31-31-31zm257 104v55c0 17.121 13.879 31 31 31s31-13.879 31-31c0-18.225 14.774-33 33-33s33 14.775 33 33c0 17.121 13.879 31 31 31s31-13.879 31-31v-55c0-22.0914-17.908-40-40-40h-110c-22.092 0-40 17.9086-40 40zm31-42c-17.121 0-31-13.8792-31-31s13.879-31 31-31h160c34.794 0 63 28.2061 63 63v128c0 34.794-28.206 63-63 63h-32c-17.121 0-31-13.879-31-31s13.879-31 31-31c18.226 0 33-14.775 33-33v-55c0-23.196-18.804-42-42-42zm64 130c-17.121 0-31 13.879-31 31v64c0 17.121 13.879 31 31 31s31-13.879 31-31v-64c0-17.121-13.879-31-31-31zm33 159c0 17.121 13.879 31 31 31h64c17.121 0 31-13.879 31-31s-13.879-31-31-31h-64c-17.121 0-31 13.879-31 31zm-66 0c0-17.121-13.879-31-31-31h-64c-17.121 0-31 13.879-31 31s13.879 31 31 31h64c17.121 0 31-13.879 31-31zm-159-33c17.121 0 31-13.879 31-31s-13.879-31-31-31c-18.226 0-33-14.775-33-33 0-17.121-13.879-31-31-31s-31 13.879-31 31c0 18.225-14.774 33-33 33-17.1211 0-31 13.879-31 31s13.8789 31 31 31c18.226 0 33 14.775 33 33 0 17.121 13.879 31 31 31s31-13.879 31-31c0-18.225 14.774-33 33-33zm-128-64c17.121 0 31-13.879 31-31s-13.879-31-31-31c-17.1211 0-31 13.879-31 31s13.8789 31 31 31zm64.022-64c18.216.012 32.978 14.782 32.978 33 0 17.121 13.879 31 31 31s31-13.879 31-31c0-7.105-.023-14.211-.045-21.317-.045-14.229-.09-28.459.045-42.683 0-17.121-13.879-31-31-31-18.226 0-33-14.775-33-33 0-17.1208-13.879-31-31-31h-64c-17.1211 0-31 13.8792-31 31 0 17.121 13.8789 31 31 31 18.226 0 33 14.775 33 33 0 22.5 20.5 31 31.022 31zm-128.022 130c-17.1211 0-31 13.879-31 31s13.8789 31 31 31 31-13.879 31-31-13.8789-31-31-31zm225-33c0-17.121 13.879-31 31-31h64c17.121 0 31 13.879 31 31s-13.879 31-31 31h-64c-17.121 0-31-13.879-31-31zm159-97c-17.121 0-31-13.879-31-31s13.879-31 31-31 31 13.879 31 31-13.879 31-31 31z" fill="#000" fill-rule="evenodd"/></svg>